<?xml version="1.0" standalone="no"?>
<!DOCTYPE svg PUBLIC "-//W3C//DTD SVG 20010904//EN"
 "http://www.w3.org/TR/2001/REC-SVG-20010904/DTD/svg10.dtd">
<svg version="1.0" xmlns="http://www.w3.org/2000/svg"
 width="1200.000000pt" height="1200.000000pt" viewBox="0 0 1200.000000 1200.000000"
 preserveAspectRatio="xMidYMid meet">
<metadata>
Created by potrace 1.14, written by Peter Selinger 2001-2017
</metadata>
<g transform="translate(0.000000,1200.000000) scale(0.100000,-0.100000)"
fill="#000000" stroke="none">
<path d="M5536 9816 c13 -45 46 -157 72 -251 27 -93 46 -171 41 -173 -5 -2
-39 6 -76 17 -156 48 -418 120 -421 116 -6 -6 -5 -955 0 -961 3 -3 36 4 74 15
280 81 427 121 429 119 1 -2 -24 -99 -57 -216 l-59 -213 -55 -57 c-31 -31 -68
-75 -83 -97 -46 -66 -98 -186 -114 -261 -20 -98 -22 -243 -3 -287 l14 -36 -44
20 c-39 16 -229 79 -259 85 -5 1 -41 9 -80 18 -38 9 -86 19 -105 22 -19 3 -46
7 -60 9 -158 28 -502 28 -660 1 -14 -3 -41 -7 -60 -10 -172 -26 -415 -104
-595 -192 -55 -27 -102 -51 -105 -54 -3 -3 -25 -16 -50 -29 -87 -45 -271 -174
-357 -249 -123 -108 -275 -266 -323 -337 -8 -12 -22 -29 -30 -37 -8 -9 -21
-24 -27 -34 -7 -11 -30 -44 -51 -74 -48 -70 -126 -210 -181 -323 -35 -76 -127
-330 -136 -377 -5 -32 -18 -95 -21 -105 -10 -33 -35 -203 -41 -275 -13 -149
-7 -402 11 -496 2 -12 7 -45 11 -75 21 -170 110 -449 201 -631 85 -169 197
-342 306 -470 94 -111 301 -310 357 -342 9 -6 27 -20 41 -33 14 -13 27 -23 31
-23 3 0 5 -154 5 -342 l-1 -342 -86 -2 c-140 -3 -238 -47 -318 -145 -71 -87
-97 -220 -61 -323 25 -75 38 -94 99 -154 61 -59 116 -89 194 -102 29 -5 1379
-8 3113 -8 2571 1 3069 3 3114 15 62 16 131 57 176 105 34 36 90 128 79 128
-4 0 -2 7 5 15 19 23 21 144 4 201 -19 64 -77 148 -132 190 -68 51 -142 75
-247 78 l-90 2 -1 341 c-1 330 0 341 19 354 110 75 294 246 407 378 65 74 195
258 233 328 55 99 146 288 151 313 1 3 4 10 7 15 4 6 25 66 47 135 49 152 71
252 87 397 3 27 9 79 14 116 9 78 7 311 -3 407 -7 60 -28 191 -41 250 -3 14
-10 46 -15 71 -28 144 -149 443 -240 594 -16 28 -33 57 -37 65 -12 23 -67 104
-80 118 -7 7 -13 17 -13 20 0 4 -10 18 -22 32 -13 14 -49 57 -81 97 -124 153
-316 328 -485 441 -51 34 -95 62 -97 62 -3 0 -22 10 -43 23 -243 152 -599 271
-905 304 -139 15 -522 7 -579 -12 -7 -2 -32 -6 -55 -9 -75 -9 -254 -57 -367
-97 -60 -21 -111 -37 -113 -35 -2 2 1 15 6 28 15 40 10 213 -9 292 -30 130
-97 250 -193 347 -60 60 -52 42 -121 294 -12 44 -25 86 -29 93 -5 6 -6 12 -4
12 3 0 -1 20 -9 45 -7 25 -10 45 -5 45 4 0 37 -9 72 -19 125 -38 244 -72 264
-77 11 -2 51 -13 90 -24 38 -11 72 -20 75 -20 6 0 4 959 -2 965 -2 2 -42 -7
-88 -21 -47 -13 -101 -29 -120 -34 -19 -6 -91 -26 -160 -45 -68 -19 -127 -35
-131 -35 -4 0 -1 21 6 48 8 26 27 94 44 152 16 58 39 137 51 175 12 39 23 81
26 94 3 14 7 28 9 32 3 3 -215 6 -484 6 l-488 0 23 -81z m554 -545 c57 -16
121 -81 138 -140 28 -91 8 -201 -47 -258 -60 -63 -181 -87 -274 -55 -210 73
-193 404 22 462 37 9 110 5 161 -9z m-1460 -2065 c14 -3 54 -10 90 -16 149
-25 315 -80 473 -155 l77 -37 0 -1473 0 -1473 -1049 0 -1048 0 -64 67 c-149
155 -244 289 -337 476 -33 67 -88 202 -96 240 -2 6 -9 30 -16 55 -18 62 -17
56 -34 140 -25 128 -31 190 -31 345 0 244 20 376 92 600 29 91 110 272 156
350 58 98 195 274 272 350 13 14 187 164 200 173 97 71 158 109 245 155 142
74 210 102 352 142 141 41 157 44 298 61 30 3 57 8 59 10 6 5 330 -3 361 -10z
m1483 -12 c146 -74 175 -287 55 -401 -43 -41 -108 -62 -183 -59 -138 6 -227
100 -227 240 0 118 71 212 177 236 46 11 143 1 178 -16z m1687 13 c14 -3 48
-8 75 -12 28 -3 57 -8 65 -10 8 -2 27 -6 43 -9 86 -15 298 -93 421 -155 244
-124 449 -290 607 -491 33 -41 64 -80 69 -87 6 -7 10 -16 10 -22 0 -5 3 -11 8
-13 21 -9 137 -225 183 -340 36 -91 85 -260 94 -323 3 -22 8 -51 10 -65 15
-78 20 -164 19 -320 -1 -211 -23 -346 -88 -543 -41 -125 -112 -288 -128 -295
-5 -2 -8 -10 -8 -17 0 -8 -6 -20 -12 -27 -7 -7 -22 -29 -32 -48 -49 -87 -142
-205 -246 -312 l-65 -66 -1047 0 -1048 1 0 1473 0 1472 78 37 c194 93 406 155
582 172 30 2 57 6 58 8 6 5 324 -2 352 -8z m-1716 -1708 c88 -24 145 -101 154
-205 6 -83 -11 -142 -57 -191 -82 -90 -238 -101 -338 -26 -103 79 -112 279
-16 369 62 59 162 79 257 53z m-1969 -1943 c50 -8 123 -62 146 -106 64 -124
28 -264 -85 -335 -45 -27 -58 -30 -130 -30 -87 0 -121 12 -168 59 -46 47 -63
94 -63 176 0 106 37 175 114 215 35 17 106 33 132 29 9 -1 33 -5 54 -8z m989
-4 c214 -60 220 -365 9 -457 -33 -14 -58 -16 -111 -12 -77 6 -100 16 -151 65
-90 87 -87 271 6 353 68 59 152 77 247 51z m963 3 c42 -7 131 -66 140 -93 3
-9 12 -32 19 -49 44 -98 -2 -235 -100 -298 -39 -26 -59 -30 -141 -29 -51 0
-81 6 -110 21 -106 56 -148 210 -90 328 31 64 76 101 146 118 53 14 67 14 136
2z m1009 -10 c87 -36 138 -121 137 -229 -1 -146 -117 -247 -268 -233 -68 6
-92 17 -139 57 -95 82 -97 273 -3 360 65 62 184 82 273 45z m972 0 c86 -36
131 -99 139 -196 15 -158 -108 -281 -267 -266 -31 2 -72 13 -91 22 -145 74
-166 304 -38 406 68 54 175 68 257 34z"/>
</g>
</svg>
